<svg xmlns="http://www.w3.org/2000/svg" viewBox="0 0 96 96" role="img" aria-labelledby="title desc">
  <title id="title">Slate avatar</title>
  <desc id="desc">A friendly illustrated avatar in a suit with slate colors.</desc>
  <defs>
    <linearGradient id="bg" x1="10" x2="86" y1="12" y2="86" gradientUnits="userSpaceOnUse">
      <stop stop-color="#dfe2ea"/>
      <stop offset="1" stop-color="#6f737a"/>
    </linearGradient>
  </defs>
  <rect width="96" height="96" rx="24" fill="url(#bg)"/>
  <circle cx="48" cy="36" r="17" fill="#d7aa8d"/>
  <path d="M31 34c0-14 9-21 20-20 11 1 18 8 16 22-12-1-21-5-29-13-2 4-4 8-7 11z" fill="#2b3038"/>
  <circle cx="41" cy="38" r="2.5" fill="#181a2c"/>
  <circle cx="55" cy="38" r="2.5" fill="#181a2c"/>
  <path d="M42 48c4 3 8 3 12 0" fill="none" stroke="#7c4b38" stroke-linecap="round" stroke-width="3"/>
  <path d="M18 88c5-20 18-31 30-31s25 11 30 31z" fill="#181a2c"/>
  <path d="M39 88l9-22 9 22z" fill="#fdf9ff"/>
  <path d="M46 68h4v20h-4z" fill="#413fe6"/>
</svg>
