<svg xmlns="http://www.w3.org/2000/svg" viewBox="0 0 96 96" role="img" aria-labelledby="title desc">
  <title id="title">Beanie avatar</title>
  <desc id="desc">A friendly illustrated avatar with a beanie and indigo jacket.</desc>
  <defs>
    <linearGradient id="bg" x1="12" x2="84" y1="10" y2="88" gradientUnits="userSpaceOnUse">
      <stop stop-color="#fff7df"/>
      <stop offset="1" stop-color="#c1c1ff"/>
    </linearGradient>
  </defs>
  <rect width="96" height="96" rx="24" fill="url(#bg)"/>
  <circle cx="48" cy="38" r="17" fill="#b98163"/>
  <path d="M30 33c3-15 13-23 27-18 8 3 12 9 11 19-13-2-24-4-38-1z" fill="#181a2c"/>
  <path d="M30 32c7-14 25-20 39-5l-3 8c-12-5-24-6-36-3z" fill="#413fe6"/>
  <circle cx="41" cy="40" r="2.5" fill="#181a2c"/>
  <circle cx="55" cy="40" r="2.5" fill="#181a2c"/>
  <path d="M42 50c4 3 8 3 12 0" fill="none" stroke="#5b2d20" stroke-linecap="round" stroke-width="3"/>
  <path d="M18 88c5-20 18-31 30-31s25 11 30 31z" fill="#413fe6"/>
</svg>
