<svg xmlns="http://www.w3.org/2000/svg" viewBox="0 0 96 96" role="img" aria-labelledby="title desc">
  <title id="title">Indigo avatar</title>
  <desc id="desc">A friendly illustrated avatar with an indigo background.</desc>
  <defs>
    <linearGradient id="bg" x1="16" x2="80" y1="12" y2="86" gradientUnits="userSpaceOnUse">
      <stop stop-color="#78d7ff"/>
      <stop offset="1" stop-color="#413fe6"/>
    </linearGradient>
  </defs>
  <rect width="96" height="96" rx="24" fill="url(#bg)"/>
  <circle cx="48" cy="36" r="17" fill="#ffd9bf"/>
  <path d="M29 37c1-18 12-24 25-22 10 2 18 10 17 22-9-2-17-8-23-15-5 7-11 12-19 15z" fill="#181a2c"/>
  <circle cx="41" cy="38" r="2.5" fill="#181a2c"/>
  <circle cx="55" cy="38" r="2.5" fill="#181a2c"/>
  <path d="M42 47c4 3 8 3 12 0" fill="none" stroke="#8a4d36" stroke-linecap="round" stroke-width="3"/>
  <path d="M20 88c4-20 17-31 28-31s24 11 28 31z" fill="#fdf9ff"/>
  <path d="M35 88l13-25 13 25z" fill="#413fe6"/>
</svg>
