<svg xmlns="http://www.w3.org/2000/svg" viewBox="0 0 96 96" role="img" aria-labelledby="title desc">
  <title id="title">Teal avatar</title>
  <desc id="desc">A friendly illustrated avatar with long hair and teal accents.</desc>
  <defs>
    <linearGradient id="bg" x1="14" x2="82" y1="8" y2="88" gradientUnits="userSpaceOnUse">
      <stop stop-color="#b9f3e4"/>
      <stop offset="1" stop-color="#5c5cff"/>
    </linearGradient>
  </defs>
  <rect width="96" height="96" rx="24" fill="url(#bg)"/>
  <path d="M27 42c0-22 12-31 22-31s22 10 21 32c-1 13 4 19 8 25-9 5-51 5-60 0 5-7 9-13 9-26z" fill="#243043"/>
  <circle cx="48" cy="38" r="18" fill="#9d5f46"/>
  <circle cx="41" cy="39" r="2.5" fill="#181a2c"/>
  <circle cx="55" cy="39" r="2.5" fill="#181a2c"/>
  <path d="M42 49c4 3 8 3 12 0" fill="none" stroke="#4b251c" stroke-linecap="round" stroke-width="3"/>
  <path d="M18 88c5-19 18-31 30-31s25 12 30 31z" fill="#fdf9ff"/>
  <path d="M33 88c2-11 8-19 15-24 7 5 13 13 15 24z" fill="#34a891"/>
</svg>
