<svg xmlns="http://www.w3.org/2000/svg" viewBox="0 0 96 96" role="img" aria-labelledby="title desc">
  <title id="title">Amber avatar</title>
  <desc id="desc">A friendly illustrated avatar with glasses and an amber sweater.</desc>
  <defs>
    <linearGradient id="bg" x1="10" x2="86" y1="8" y2="88" gradientUnits="userSpaceOnUse">
      <stop stop-color="#fff0c7"/>
      <stop offset="1" stop-color="#ffbf00"/>
    </linearGradient>
  </defs>
  <rect width="96" height="96" rx="24" fill="url(#bg)"/>
  <circle cx="48" cy="36" r="17" fill="#c9855f"/>
  <path d="M30 31c4-13 15-19 27-15 8 2 13 8 12 18-12-1-22-6-31-14-3 4-6 8-8 11z" fill="#2d1c17"/>
  <circle cx="40" cy="39" r="5" fill="none" stroke="#181a2c" stroke-width="2.5"/>
  <circle cx="56" cy="39" r="5" fill="none" stroke="#181a2c" stroke-width="2.5"/>
  <path d="M45 39h6" stroke="#181a2c" stroke-linecap="round" stroke-width="2.5"/>
  <path d="M42 49c4 3 8 3 12 0" fill="none" stroke="#5a2c1f" stroke-linecap="round" stroke-width="3"/>
  <path d="M19 88c5-20 18-31 29-31s24 11 29 31z" fill="#795900"/>
</svg>
