<svg xmlns="http://www.w3.org/2000/svg" viewBox="0 0 96 120" role="img" aria-labelledby="title desc">
  <title id="title">Coffee card</title>
  <desc id="desc">A warm coffee cup used as a planning poker card.</desc>
  <rect width="96" height="120" rx="20" fill="#fff8e1"/>
  <path d="M28 48h34v24c0 10-8 18-17 18s-17-8-17-18z" fill="#ffbf00"/>
  <path d="M62 53h7c8 0 12 6 10 13-2 6-7 10-17 10v-8c6 0 9-2 10-5 1-3-1-5-5-5h-5z" fill="#795900"/>
  <path d="M32 48h26v24c0 7-6 13-13 13s-13-6-13-13z" fill="#fff0c7"/>
  <path d="M35 95h29" stroke="#795900" stroke-linecap="round" stroke-width="6"/>
  <path d="M36 33c-5-7 5-10 0-17M48 33c-5-7 5-10 0-17M60 33c-5-7 5-10 0-17" fill="none" stroke="#795900" stroke-linecap="round" stroke-width="4"/>
</svg>
